<svg width="33" height="32" viewBox="0 0 33 32" fill="none" xmlns="http://www.w3.org/2000/svg">
<path d="M24.25 17.375C24.25 17.0938 24.0938 16.8438 23.8438 16.6875L22.8125 16.0938C22.8438 15.9375 22.8438 15.7188 22.8438 15.5C22.8438 15.3125 22.8438 15.0938 22.8125 14.9062L23.8438 14.3125C24.0938 14.1562 24.25 13.9062 24.25 13.6562C24.25 12.9688 22.6875 9.625 21.5938 9.625C21.4688 9.625 21.3438 9.65625 21.2188 9.75L20.1875 10.3438C19.8438 10.0938 19.5 9.875 19.125 9.71875V8.53125C19.125 8.1875 18.875 7.875 18.5625 7.78125C17.875 7.59375 17.1875 7.5 16.5 7.5C15.7812 7.5 15.0938 7.59375 14.4062 7.78125C14.0938 7.875 13.8438 8.1875 13.8438 8.53125V9.71875C13.4688 9.875 13.125 10.0938 12.7812 10.3438L11.75 9.75C11.625 9.65625 11.5 9.625 11.375 9.625C10.3438 9.625 8.71875 12.8125 8.71875 13.6562C8.71875 13.9062 8.875 14.1562 9.125 14.3125L10.1562 14.9062C10.125 15.0938 10.125 15.3125 10.125 15.5C10.125 15.7188 10.125 15.9375 10.1562 16.125L9.125 16.7188C8.875 16.875 8.71875 17.125 8.71875 17.375C8.71875 18.0312 10.2812 21.375 11.375 21.375C11.5 21.375 11.625 21.3438 11.75 21.25L12.7812 20.6562C13.125 20.9062 13.4688 21.125 13.8438 21.2812V22.4688C13.8438 22.8125 14.0938 23.125 14.4062 23.2188C15.0938 23.4375 15.7812 23.5 16.4688 23.5C17.1562 23.5 17.8438 23.4375 18.5312 23.25C18.875 23.1562 19.0938 22.8438 19.0938 22.5V21.3125C19.4688 21.1562 19.8125 20.9375 20.1562 20.6875L21.1875 21.2812C21.3125 21.375 21.4375 21.4062 21.5625 21.4062C22.625 21.4062 24.25 18.2188 24.25 17.375ZM21.4688 19.6875L20.0938 18.875C18.7812 19.8438 19.0938 19.6562 17.625 20.3125V21.875C17.2188 21.9688 16.8125 22 16.4688 22C16 22 15.5938 21.9375 15.3438 21.875V20.3125C13.875 19.6562 14.1875 19.8438 12.875 18.875L11.5 19.6875C11.0312 19.0938 10.625 18.4375 10.375 17.6875L11.7188 16.9375C11.6562 16.1562 11.625 15.8438 11.625 15.5C11.625 15.1875 11.6562 14.875 11.7188 14.0938L10.375 13.3125C10.625 12.5938 11.0312 11.9062 11.5 11.3125L12.875 12.125C14.1875 11.1562 13.875 11.3438 15.3438 10.6875V9.125C15.75 9.03125 16.1562 9 16.5 9C16.9688 9 17.3438 9.0625 17.625 9.125V10.6875C19.0938 11.3438 18.7812 11.1562 20.0938 12.125L21.4688 11.3438C21.9375 11.9062 22.3438 12.5938 22.5938 13.3125L21.25 14.0938C21.3125 14.875 21.3438 15.1875 21.3438 15.5C21.3438 15.8125 21.3125 16.1562 21.25 16.9375L22.5938 17.7188C22.3438 18.4375 21.9375 19.125 21.4688 19.6875ZM16.5 12.5C14.8438 12.5 13.5 13.8438 13.5 15.5C13.5 17.125 14.8438 18.5 16.5 18.5C18.125 18.5 19.5 17.125 19.5 15.5C19.5 13.8438 18.125 12.5 16.5 12.5ZM16.5 17C15.6562 17 15 16.3438 15 15.5C15 14.6875 15.6562 14 16.5 14C17.3125 14 18 14.6875 18 15.5C18 16.3438 17.3125 17 16.5 17Z" fill="white" style="mix-blend-mode:hard-light"/>
</svg>
