<svg width="33" height="32" viewBox="0 0 33 32" fill="none" xmlns="http://www.w3.org/2000/svg">
<path d="M11.5 7.5C12.7188 7.5 14.125 8.59375 14.4375 13.4062C14.75 12.4688 15.5 11.75 16.4688 11.5312L18.9062 10.9688C19.7188 10.7812 20.5625 10.9688 21.2188 11.5L22.7188 12.6562C23.0625 12.9062 23.0938 13.375 22.8438 13.7188C22.5938 14.0312 22.125 14.0938 21.8125 13.8438L20.2812 12.6562C20 12.4375 19.625 12.375 19.25 12.4375L18.7812 12.5312L19.875 15.2812C20.2188 16.0625 19.9062 17 19.1562 17.4375L16.5625 19C16.4688 19.0625 16.4375 19.1562 16.4375 19.2188C16.4375 19.25 16.4375 19.2812 16.4375 19.3125L17.4688 22.5625C17.5312 22.75 17.5 22.9688 17.4062 23.125C17.3125 23.3125 17.1562 23.4375 16.9688 23.5C16.9062 23.5 16.8438 23.5 16.75 23.5C16.4375 23.5 16.125 23.2812 16.0312 22.9688L15 19.7188C14.7812 18.9375 15.0938 18.125 15.7812 17.7188L17.4062 16.75L16.0938 13.4688C16 13.5938 15.9375 13.7188 15.875 13.8438L15.4375 15.2812C15.2188 16.0312 14.5625 16.5 13.7812 16.5H12.2812C11.8438 16.5 11.5 16.1875 11.5 15.7812C11.5 15.3438 11.8438 15.0312 12.25 15.0312H13C12.9688 11.6562 12.3125 9 11.5 9C10.6875 9 10 11.9375 10 15.5C10 19.0938 10.6875 22 11.5 22C12.1875 22 12.75 20.125 12.9375 17.5H14.4688C14.25 20.5938 13.5625 23.5 11.5 23.5C10.1562 23.5 8.5 22.125 8.5 15.5C8.5 11.875 9.03125 7.5 11.5 7.5ZM16 10.5C15.1875 10.5 14.5 9.84375 14.5 9.03125C14.5 8.25 15.1875 7.5 16 7.5C16.8438 7.5 17.5312 8.1875 17.5312 9C17.5312 9.84375 16.8438 10.5 16 10.5ZM20.5625 17.4062L21.1875 18.875C21.2188 18.9688 21.3125 19 21.4062 19H23.75C24.1875 19 24.5 19.3438 24.5 19.75C24.5 20.1875 24.1875 20.5 23.75 20.5H21.4062C20.7188 20.5 20.0938 20.0938 19.8125 19.4688L19.375 18.4688L19.6875 18.2812C20.0312 18.0625 20.3438 17.7812 20.5625 17.4062Z" fill="white" style="mix-blend-mode:hard-light"/>
</svg>
