<svg width="33" height="32" viewBox="0 0 33 32" fill="none" xmlns="http://www.w3.org/2000/svg">
<path d="M22.75 9H10.25C8.71875 9 7.5 10.25 7.5 11.75V18.25C7.5 19.7812 8.71875 21 10.25 21C10.6562 21 11 20.6875 11 20.25C11 19.8438 10.6562 19.5 10.25 19.5C9.53125 19.5 9 18.9688 9 18.25V11.75C9 11.0625 9.53125 10.5 10.25 10.5H22.75C23.4375 10.5 24 11.0625 24 11.75V18.25C24 18.9688 23.4375 19.5 22.75 19.5C22.3125 19.5 22 19.8438 22 20.25C22 20.6875 22.3125 21 22.75 21C24.25 21 25.5 19.7812 25.5 18.25V11.75C25.5 10.25 24.25 9 22.75 9ZM17.5312 16.9688C16.9688 16.375 16 16.375 15.4375 16.9688L11.9375 20.4688C11 21.4062 11.6562 23 13 23H19.9688C21.3125 23 22 21.4062 21.0312 20.4688L17.5312 16.9688ZM13 21.5L16.4688 18L19.9688 21.5H13Z" fill="white" style="mix-blend-mode:hard-light"/>
</svg>
