<svg width="33" height="32" viewBox="0 0 33 32" fill="none" xmlns="http://www.w3.org/2000/svg">
<path d="M21.25 14C20.8125 14 20.5 14.3438 20.5 14.75V16C20.5 18.3438 18.4688 20.2188 16.0938 20C14 19.7812 12.5 17.9375 12.5 15.8438V14.75C12.5 14.3438 12.1562 14 11.75 14C11.3125 14 11 14.3438 11 14.75V15.75C11 18.5312 13 21.0312 15.75 21.4062V22.5H14.2188C13.8125 22.5 13.5 22.8438 13.5 23.25C13.5 23.625 13.8125 24 14.2188 24H18.7188C19.1562 24 19.5 23.6875 19.5 23.25C19.5 22.8438 19.1562 22.5 18.75 22.5H17.25V21.4688C19.9062 21.0938 22 18.7812 22 16V14.75C22 14.3438 21.6562 14 21.25 14ZM16.5 19C18.1562 19 19.5 17.6562 19.5 16V11C19.5 9.375 18.1562 8 16.5 8C14.8438 8 13.5 9.34375 13.5 11V16C13.5 17.6562 14.8438 19 16.5 19ZM15 11C15 10.1875 15.6562 9.5 16.5 9.5C17.3125 9.5 18 10.1875 18 11V16C18 16.8438 17.3125 17.5 16.5 17.5C15.6562 17.5 15 16.8438 15 16V11Z" fill="white" style="mix-blend-mode:hard-light"/>
</svg>
