<svg width="33" height="32" viewBox="0 0 33 32" fill="none" xmlns="http://www.w3.org/2000/svg">
<path d="M19.4688 14.75H17.2188V12.5C17.2188 12.0938 16.875 11.75 16.5 11.75C16.0938 11.75 15.7188 12.0938 15.7188 12.5V14.75H13.4688C13.0625 14.75 12.7188 15.0938 12.7188 15.5C12.7188 15.9375 13.0625 16.25 13.4688 16.25H15.6875V18.5C15.6875 18.9375 16 19.25 16.4375 19.25C16.8438 19.25 17.1562 18.9375 17.1562 18.5V16.25H19.4062C19.8125 16.25 20.125 15.9375 20.125 15.5C20.125 15.0938 19.9062 14.75 19.4688 14.75ZM21.5 8.5H11.5C10.375 8.5 9.5 9.40625 9.5 10.5V20.5C9.5 21.625 10.375 22.5 11.5 22.5H21.5C22.5938 22.5 23.5 21.625 23.5 20.5V10.5C23.5 9.40625 22.5938 8.5 21.5 8.5ZM22 20.5C22 20.7812 21.75 21 21.5 21H11.5C11.2188 21 11 20.7812 11 20.5V10.5C11 10.25 11.2188 10 11.5 10H21.5C21.75 10 22 10.25 22 10.5V20.5Z" fill="white" style="mix-blend-mode:hard-light"/>
</svg>
